<svg xmlns="http://www.w3.org/2000/svg" width="24" height="11" viewBox="0 0 24 11" shape-rendering="crispEdges"><rect x="0" y="4" width="21" height="1" fill="#1b1f28"></rect><rect x="0" y="5" width="1" height="1" fill="#1b1f28"></rect><rect x="1" y="5" width="1" height="1" fill="#242a36"></rect><rect x="2" y="5" width="1" height="1" fill="#3d4757"></rect><rect x="3" y="5" width="3" height="1" fill="#242a36"></rect><rect x="6" y="5" width="11" height="1" fill="#d3dae2"></rect><rect x="17" y="5" width="1" height="1" fill="#e8c34a"></rect><rect x="18" y="5" width="2" height="1" fill="#b3bcc7"></rect><rect x="20" y="5" width="4" height="1" fill="#1b1f28"></rect><rect x="0" y="6" width="1" height="1" fill="#1b1f28"></rect><rect x="1" y="6" width="5" height="1" fill="#242a36"></rect><rect x="6" y="6" width="11" height="1" fill="#8f98a4"></rect><rect x="17" y="6" width="1" height="1" fill="#e8c34a"></rect><rect x="18" y="6" width="5" height="1" fill="#b3bcc7"></rect><rect x="23" y="6" width="1" height="1" fill="#1b1f28"></rect><rect x="0" y="7" width="18" height="1" fill="#1b1f28"></rect><rect x="18" y="7" width="5" height="1" fill="#b3bcc7"></rect><rect x="23" y="7" width="1" height="1" fill="#1b1f28"></rect><rect x="17" y="8" width="2" height="1" fill="#1b1f28"></rect><rect x="19" y="8" width="3" height="1" fill="#79818c"></rect><rect x="22" y="8" width="2" height="1" fill="#1b1f28"></rect><rect x="18" y="9" width="5" height="1" fill="#1b1f28"></rect></svg>
